# xmcd
#
# Track frame offsets:
#        150
#        47196
#        65096
#        108949
#        142786
#        188489
#        216770
#        222055
#        259182
#
# Disc length: 3586 seconds
#
# Revision: 3
# Processed by: cddbd v1.5.2PL0 Copyright (c) Steve Scherf et al.
# Submitted via: ExactAudioCopy v0.99pb4
#
DISCID=810e0009
DTITLE=Miles Davis - Bitches Brew Live
DYEAR=1969
DGENRE=Jazz
TTITLE0=Miles Runs The Voodoo Down
TTITLE1=Sanctuary
TTITLE2=It’s About That Time/The Theme
TTITLE3=Directions
TTITLE4=Bitches Brew
TTITLE5=It’s About That Time
TTITLE6=Sanctuary
TTITLE7=Spanish Key
TTITLE8=The Theme
EXTD=YEAR: 1969
EXTT0=
EXTT1=
EXTT2=
EXTT3=
EXTT4=
EXTT5=
EXTT6=
EXTT7=
EXTT8=
PLAYORDER=
